<?xml version="1.0" encoding="utf-8"?>
<!-- Generator: Adobe Illustrator 19.2.1, SVG Export Plug-In . SVG Version: 6.00 Build 0)  -->
<svg version="1.1" id="Layer_1" xmlns="http://www.w3.org/2000/svg" xmlns:xlink="http://www.w3.org/1999/xlink" x="0px" y="0px"
	 width="106.667px" height="106.802px" viewBox="0 0 106.667 106.802" enable-background="new 0 0 106.667 106.802"
	 xml:space="preserve">
<circle fill="#7BC6C4" cx="53.292" cy="53.731" r="52.332"/>
<g>
	<defs>
		<circle id="SVGID_1_" cx="53.292" cy="53.731" r="52.332"/>
	</defs>
	<clipPath id="SVGID_2_">
		<use xlink:href="#SVGID_1_"  overflow="visible"/>
	</clipPath>
	<g clip-path="url(#SVGID_2_)">
		<path fill="#0C0000" d="M29.341,49.327c-0.293,0.43-1.191,36.823,5.204,44.273h36.197c0,0,9.886-27.939,3.152-44.273H29.126"/>
		<g>
			<rect x="43.849" y="69.331" fill="#F7B097" width="20.042" height="13.503"/>
			<g>
				<path fill="#F5A77F" d="M75.563,43.925c0.068-0.498,0.912-1.307,1.28-1.579c0.824-0.609,1.653,0.017,1.893,0.809
					c0.215,0.709,0.235,1.507,0.287,2.242c0.127,1.792-0.146,3.553-0.954,5.17c-0.539,1.079-1.384,1.966-2.384,2.635
					c0,0-1.079,0.536-1.292-0.696C74.393,52.505,75.563,43.93,75.563,43.925z"/>
				<path fill="#F07F46" d="M75.392,45.001c0.048-0.356,0.652-0.934,0.915-1.13c0.59-0.435,1.183,0.013,1.355,0.579
					c0.154,0.507,0.168,1.078,0.205,1.604c0.089,1.283-0.105,2.542-0.683,3.7c-0.385,0.772-0.991,1.407-1.706,1.886
					c0,0-0.771,0.383-0.924-0.499C74.554,51.141,75.391,45.005,75.392,45.001z"/>
			</g>
			<g>
				<path fill="#F5A77F" d="M31.667,43.925c-0.068-0.498-0.912-1.307-1.281-1.579c-0.822-0.609-1.651,0.017-1.892,0.809
					c-0.216,0.709-0.236,1.507-0.287,2.242c-0.125,1.792,0.146,3.553,0.954,5.17c0.538,1.079,1.384,1.966,2.384,2.635
					c0,0,1.078,0.536,1.292-0.696C32.837,52.505,31.668,43.93,31.667,43.925z"/>
				<path fill="#F07F46" d="M31.838,45.001c-0.048-0.356-0.651-0.934-0.915-1.13c-0.59-0.435-1.184,0.013-1.355,0.579
					c-0.154,0.507-0.167,1.078-0.207,1.604c-0.089,1.283,0.105,2.542,0.684,3.7c0.386,0.772,0.99,1.407,1.707,1.886
					c0,0,0.771,0.383,0.925-0.499C32.677,51.141,31.839,45.005,31.838,45.001z"/>
			</g>
			<path fill="#D69C85" d="M48.674,80.683c3.019,1.197,6.332,1.923,9.584,1.95c1.863,0.014,3.758-0.217,5.596-0.543V70.917H43.813
				l0.036,6.906C45.255,79.062,47.018,80.027,48.674,80.683z"/>
			<path fill="#FFBCA4" d="M76.221,45.538c0,5.658-0.976,11.379-3.645,16.275c-2.333,4.282-5.832,7.709-9.588,10.448
				c-3.047,2.221-6.315,4.809-10.171,4.493c-4.022-0.331-7.153-3.757-10.09-6.431c-4.132-3.761-7.393-8.432-9.4-13.928
				c-1.238-3.386-1.808-7.21-1.808-10.857c0-18.289,10.007-29.793,22.351-29.793C66.214,15.745,76.221,27.249,76.221,45.538z"/>
			<path fill="#F7B097" d="M84.362,88.94l-21.761-6.531h-8.731H45.14L23.378,88.94c0,0-10.084,4.288-11.205,17.862h41.696h41.698
				C94.447,93.228,84.362,88.94,84.362,88.94z"/>
			<path fill="#E64645" d="M84.362,88.94l-12.034-3.611l-18.458,18.444L35.358,85.345l-11.98,3.595c0,0-10.084,4.288-11.205,17.862
				h41.696h41.698C94.447,93.228,84.362,88.94,84.362,88.94z"/>
		</g>
		<path fill="#0D3954" d="M38.701,23.009c0,0,10.765,17.071,37.45,19.975c0,0,5.05-19.447-13.719-28.903
			C62.432,14.081,48.068,8.153,38.701,23.009z"/>
		<path fill="#0D3954" d="M41.46,26.463c0,0-6.95,4.497-9.968,17.047c0,0-3.234-23.65,13.495-26.603L41.46,26.463z"/>
		<path fill="#0D3954" d="M68.736,41.017c0,0,7.164,45.563-4.155,58.459c0,0,14.472-2.15,15.188-22.066
			c0,0,2.579-40.691-7.214-54.733L68.736,41.017z"/>
		<path fill="#0D3954" d="M38.114,99.475c0,0-16.661-1.975-12.076-53.213c0,0,1.146-28.457,17.81-29.111l-0.964,10.797
			c0,0-9.577,2.852-8.34,25.369C34.545,53.317,33.57,89.589,38.114,99.475z"/>
	</g>
</g>
</svg>
