<?xml version="1.0" encoding="utf-8"?>
<!-- Generator: Adobe Illustrator 19.2.1, SVG Export Plug-In . SVG Version: 6.00 Build 0)  -->
<svg version="1.1" id="Layer_1" xmlns="http://www.w3.org/2000/svg" xmlns:xlink="http://www.w3.org/1999/xlink" x="0px" y="0px"
	 width="106.667px" height="106.802px" viewBox="0 0 106.667 106.802" enable-background="new 0 0 106.667 106.802"
	 xml:space="preserve">
<circle fill="#766384" cx="53.333" cy="53.401" r="52.333"/>
<g>
	<defs>
		<circle id="SVGID_1_" cx="53.333" cy="53.401" r="52.333"/>
	</defs>
	<clipPath id="SVGID_2_">
		<use xlink:href="#SVGID_1_"  overflow="visible"/>
	</clipPath>
	<g clip-path="url(#SVGID_2_)">
		<rect x="43.313" y="70.631" fill="#F7BA9B" width="20.042" height="13.504"/>
		<path fill="#E09F82" d="M49.375,80.292c3.018,1.197,5.132,2.03,8.384,2.056c1.862,0.015,3.758-0.217,5.596-0.541V70.631H43.313
			v5.828C44.72,77.697,47.719,79.635,49.375,80.292z"/>
		<g>
			<path fill="#F7BA9B" d="M74.257,45.624c0.065-0.49,0.879-1.29,1.235-1.559c0.794-0.601,1.595,0.017,1.827,0.799
				c0.208,0.7,0.227,1.487,0.276,2.215c0.122,1.77-0.14,3.509-0.92,5.107c-0.52,1.065-1.336,1.941-2.3,2.602
				c0,0-1.04,0.53-1.247-0.688C73.127,54.1,74.255,45.63,74.257,45.624z"/>
			<path fill="#F39B6F" d="M74.091,46.688c0.046-0.351,0.629-0.922,0.883-1.116c0.569-0.43,1.141,0.012,1.307,0.572
				c0.149,0.502,0.163,1.065,0.199,1.585c0.087,1.267-0.101,2.511-0.658,3.654c-0.373,0.763-0.956,1.39-1.647,1.863
				c0,0-0.744,0.379-0.892-0.492C73.283,52.754,74.09,46.693,74.091,46.688z"/>
		</g>
		<g>
			<path fill="#F7BA9B" d="M31.9,45.624c-0.065-0.49-0.88-1.29-1.236-1.559c-0.793-0.601-1.594,0.017-1.827,0.799
				c-0.207,0.7-0.227,1.487-0.276,2.215c-0.122,1.77,0.141,3.509,0.921,5.107c0.519,1.065,1.334,1.941,2.3,2.602
				c0,0,1.04,0.53,1.247-0.688C33.029,54.1,31.9,45.63,31.9,45.624z"/>
			<path fill="#F39B6F" d="M32.065,46.688c-0.047-0.351-0.629-0.922-0.884-1.116c-0.568-0.43-1.141,0.012-1.306,0.572
				c-0.149,0.502-0.162,1.065-0.198,1.585c-0.086,1.267,0.101,2.511,0.658,3.654c0.373,0.763,0.956,1.39,1.646,1.863
				c0,0,0.744,0.379,0.892-0.492C32.873,52.754,32.067,46.693,32.065,46.688z"/>
		</g>
		<path fill="#F7BA9B" d="M74.891,47.22c0,5.588-0.942,11.239-3.517,16.076c-2.251,4.229-5.628,7.616-9.252,10.32
			c-2.941,2.194-6.094,4.751-9.816,4.438c-3.879-0.326-6.9-3.711-9.736-6.352c-3.986-3.716-7.133-8.33-9.071-13.759
			c-1.194-3.345-1.744-7.122-1.744-10.724c0-18.066,9.656-29.43,21.567-29.43C65.235,17.789,74.891,29.153,74.891,47.22z"/>
		<path fill="#0D374F" d="M88.33,90.241l-18.484-4.834l-16.513,22.696L36.999,85.36l-18.663,4.88c0,0-11.575,4.288-12.86,17.862
			h47.857h47.857C99.905,94.528,88.33,90.241,88.33,90.241z"/>
		<polygon fill="#CCCCCC" points="43.083,95.083 49.363,89.316 53.265,85.996 62.73,95.052 63.642,93.815 55.607,104.946 
			52.875,104.458 48.833,102.625 		"/>
		<polygon fill="#09D3D3" points="51.142,96.732 46.54,108.103 59.616,108.103 55.13,96.732 		"/>
		<g>
			<polygon fill="#09D3D3" points="53.032,83.932 46.82,91.359 51.245,96.763 53.239,96.731 55.233,96.698 59.141,91.596 			"/>
			<path fill="#E2E3E4" d="M56.946,90.761c-0.749,1.48-2.144,3.167-4.036,2.751c-1.955-0.43-2.855-2.28-2.403-4.161
				c0.441-1.833,1.625-3.359,2.283-5.094l-5.969,7.102l4.425,5.404l3.988-0.065l3.908-5.102l-1.653-2.074
				C57.326,89.945,57.148,90.359,56.946,90.761z"/>
		</g>
		<polygon fill="#05304A" points="53.333,108.103 36.999,85.36 23.937,88.777 40.629,100.527 36.341,102.417 44.057,108.103 		"/>
		<polygon fill="#05304A" points="53.333,108.134 69.668,85.392 82.728,88.807 66.038,100.558 70.325,102.449 62.608,108.134 		"/>
		<polygon fill="#EDEEEE" points="36.999,85.36 43.279,79.593 53.265,83.763 63.252,79.593 69.846,85.407 62.73,95.052 
			53.265,85.996 43.678,94.659 		"/>
		<path fill="#002C46" d="M65.959,70.35c0,0,5.415-5.121,6.611-9.64c0,0-6.389,5.764-8.616,5.151L65.959,70.35z"/>
		<path fill="#002C46" d="M42.211,71.883c0,0-6.276-5.379-8.003-12.118c0,0,7.162,8.267,9.388,7.653L42.211,71.883z"/>
		<path fill="#05304A" d="M57.15,63.015c3.545,0.048,5.476,1.273,5.476,1.273c3.115,1.467,3.909,5.461,3.909,5.461
			s-2.142,2.37-4.756,4.047c-5.909,4.897-8.621,4.278-8.621,4.278c-3.361,0.005-5.721-2.098-5.721-2.098l-5.53-4.333
			c-0.688-4.924,3.607-7.355,3.607-7.355c2.577-1.253,3.043-1.085,3.043-1.085s3.859-0.451,4.804,1.082c0,0,0.971-1.27,3.596-1.27"
			/>
		<g>
			<path fill="#F7BA9B" d="M53.849,67.067c0,0-2.427-1.213-5.957,0.09c0,0,5.359,5.683,11.443,0.074
				C59.335,67.232,56.075,65.71,53.849,67.067z"/>
		</g>
		<path fill="#002C46" d="M75.085,20.571c4.858-3.537,4.329-8.979,4.329-8.979c-2.825,3.107-6.973,3.513-6.973,3.513
			c4.288-2.572,2.16-7.93,2.16-7.93c-1.34,3-7.305,4.715-7.305,4.715c2.894-1.93,1.091-6.324,1.091-6.324
			c-2.016,3.43-8.057,4.931-8.057,4.931c3.966-2.251,4.394-5.466,4.394-5.466c-3.537,3.107-13.182,4.608-13.182,4.608
			s-10.625,0.967-13.265,9.796c-7.77,1.119-7.842,14.257-7.303,21.349c0,0,0,0,0,0.001l0.492,8.578h1.726
			c-0.773-4.108,0-9.682,0-9.682l0,0c1.186-3.993,1.796-6.354,2.562-8.024c1.843-4.02,4.712-5.239,6.545-5.598l1.741-0.13
			c7.609-1.114,9.853,4.287,9.853,4.287c1.179-3.107,5.152-3.857,5.152-3.857c11.573-1.543,13.233,7.609,13.233,7.609l1.306,5.824
			c0.181,1.939,0.493,6.43-0.098,9.573h1.726l0.492-8.578c0.013-0.265,0.011-0.498-0.001-0.709
			C76.575,35.293,77.348,27.497,75.085,20.571z"/>
	</g>
</g>
</svg>
