<?xml version="1.0" encoding="utf-8"?>
<!-- Generator: Adobe Illustrator 19.2.1, SVG Export Plug-In . SVG Version: 6.00 Build 0)  -->
<svg version="1.1" id="Layer_1" xmlns="http://www.w3.org/2000/svg" xmlns:xlink="http://www.w3.org/1999/xlink" x="0px" y="0px"
	 width="106.667px" height="106.802px" viewBox="0 0 106.667 106.802" enable-background="new 0 0 106.667 106.802"
	 xml:space="preserve">
<g>
	<defs>
		<circle id="SVGID_1_" cx="53.333" cy="53.401" r="52.332"/>
	</defs>
	<use xlink:href="#SVGID_1_"  overflow="visible" fill="#003A54"/>
	<clipPath id="SVGID_2_">
		<use xlink:href="#SVGID_1_"  overflow="visible"/>
	</clipPath>
	<g clip-path="url(#SVGID_2_)">
		<rect x="43.313" y="68.208" fill="#F5A77F" width="20.042" height="13.503"/>
		<g>
			<path fill="#F5A77F" d="M75.451,43.201c0.069-0.49,0.929-1.29,1.306-1.559c0.838-0.601,1.685,0.017,1.929,0.799
				c0.219,0.7,0.239,1.488,0.291,2.214c0.128,1.771-0.148,3.509-0.972,5.108c-0.549,1.066-1.41,1.941-2.431,2.603
				c0,0-1.098,0.529-1.317-0.688C74.258,51.677,75.45,43.207,75.451,43.201z"/>
			<path fill="#CE8767" d="M75.275,44.265c0.05-0.351,0.666-0.924,0.935-1.116c0.6-0.43,1.206,0.012,1.38,0.572
				c0.156,0.501,0.172,1.064,0.21,1.585c0.092,1.267-0.106,2.511-0.696,3.655c-0.393,0.763-1.009,1.389-1.739,1.862
				c0,0-0.787,0.379-0.943-0.492C74.422,50.331,75.275,44.269,75.275,44.265z"/>
		</g>
		<g>
			<path fill="#F5A77F" d="M30.706,43.201c-0.068-0.49-0.929-1.29-1.306-1.559c-0.838-0.601-1.684,0.017-1.929,0.799
				c-0.219,0.7-0.239,1.488-0.292,2.214c-0.129,1.771,0.149,3.509,0.972,5.108c0.55,1.066,1.41,1.941,2.43,2.603
				c0,0,1.099,0.529,1.317-0.688C31.899,51.677,30.707,43.207,30.706,43.201z"/>
			<path fill="#CE8767" d="M30.881,44.265c-0.049-0.351-0.665-0.924-0.934-1.116c-0.6-0.43-1.206,0.012-1.38,0.572
				c-0.157,0.501-0.171,1.064-0.21,1.585c-0.091,1.267,0.107,2.511,0.697,3.655c0.392,0.763,1.009,1.389,1.738,1.862
				c0,0,0.787,0.379,0.943-0.492C31.735,50.331,30.882,44.269,30.881,44.265z"/>
		</g>
		<path fill="#F5A77F" d="M76.122,44.796c0,5.588-0.995,11.24-3.715,16.075c-2.378,4.229-5.945,7.615-9.773,10.321
			c-3.106,2.194-6.438,4.75-10.369,4.438c-4.098-0.326-7.291-3.71-10.285-6.352c-4.212-3.716-7.535-8.33-9.583-13.759
			c-1.262-3.345-1.842-7.122-1.842-10.724c0-18.067,10.201-29.431,22.783-29.431C65.921,15.365,76.122,26.73,76.122,44.796z"/>
		<path fill="#F5A77F" d="M88.331,87.817l-24.976-6.532H53.334H43.313l-24.976,6.532c0,0-11.576,4.288-12.861,17.862h47.858h47.858
			C99.905,92.105,88.331,87.817,88.331,87.817z"/>
		<path fill="#FFFFFF" d="M88.331,87.817l-24.976-6.532H53.334H43.313l-24.976,6.532c0,0-11.576,4.288-12.861,17.862h47.858h47.858
			C99.905,92.105,88.331,87.817,88.331,87.817z"/>
		<path fill="#E74C4B" d="M88.331,87.817l-18.484-4.833l-16.513,22.696L36.999,82.937l-18.662,4.88c0,0-11.576,4.288-12.861,17.862
			h47.858h47.858C99.905,92.105,88.331,87.817,88.331,87.817z"/>
		<polygon fill="#00D5D9" points="51.142,94.308 46.54,105.679 59.615,105.679 55.13,94.308 		"/>
		<g>
			<polygon fill="#00D5D9" points="53.033,81.508 47.174,89.367 51.246,94.339 53.24,94.307 55.233,94.275 59.142,89.172 			"/>
			<path fill="#D0D2D3" d="M56.946,88.337c-0.75,1.481-2.144,3.168-4.036,2.751c-1.956-0.43-2.857-2.28-2.403-4.161
				c0.44-1.832,1.624-3.358,2.282-5.093l-5.616,7.534l4.072,4.972l3.987-0.065l3.909-5.102l-1.654-2.074
				C57.327,87.52,57.148,87.935,56.946,88.337z"/>
		</g>
		<path fill="#002533" d="M76.07,42.603c0,0-3.385,17.293-15.817,22.348c0,0-1.556,3.858-6.726,3.858
			c-5.169,0-6.726-3.858-6.726-3.858C34.326,59.95,30.609,42.572,30.609,42.572c-1.084,19.449,12.912,27.905,12.912,27.905
			c7.627,6.241,10.007,5.169,10.007,5.169s2.38,1.072,10.006-5.169C63.534,70.477,77.667,63.979,76.07,42.603z"/>
		<path fill="#002533" d="M53.334,59.144c0,0-5.157-1.572-6.532,5.807c0,0-1.458-0.188-3.773-2.037
			C43.029,62.914,46.492,54.267,53.334,59.144z"/>
		<path fill="#002533" d="M53.775,59.144c0,0,5.158-1.572,6.531,5.807c0,0,1.458-0.188,3.773-2.037
			C64.08,62.914,60.616,54.267,53.775,59.144z"/>
		<path fill="#002533" d="M30.609,42.572c0,0,3.344-20.348,13.775-18.347c0,0,9.431,5.868,17.291-0.138
			c0,0,9.161-0.29,14.395,18.516c0,0,1.681-20.093-12.716-27.238c0,0-13.32-6.145-24.719,3.001
			C38.636,18.366,27.838,26.898,30.609,42.572z"/>
		<polygon fill="#E64645" points="53.334,105.679 36.999,82.937 23.939,86.352 40.629,98.103 36.342,99.994 44.058,105.679 		"/>
		<polygon fill="#E64645" points="53.334,105.711 69.668,82.968 82.729,86.383 66.038,98.134 70.326,100.025 62.609,105.711 		"/>
		<polygon fill="#E2E3E4" points="36.999,82.937 43.279,77.169 53.266,81.339 63.252,77.169 69.847,82.984 61.559,94.308 
			53.266,83.573 44.744,93.482 		"/>
	</g>
</g>
</svg>
