<?xml version="1.0" encoding="utf-8"?>
<!-- Generator: Adobe Illustrator 19.2.1, SVG Export Plug-In . SVG Version: 6.00 Build 0)  -->
<svg version="1.1" id="Layer_1" xmlns="http://www.w3.org/2000/svg" xmlns:xlink="http://www.w3.org/1999/xlink" x="0px" y="0px"
	 width="106.667px" height="106.802px" viewBox="0 0 106.667 106.802" enable-background="new 0 0 106.667 106.802"
	 xml:space="preserve">
<circle fill="#EF8E89" cx="53.333" cy="53.401" r="52.333"/>
<g>
	<defs>
		<circle id="SVGID_1_" cx="53.333" cy="53.401" r="52.333"/>
	</defs>
	<clipPath id="SVGID_2_">
		<use xlink:href="#SVGID_1_"  overflow="visible"/>
	</clipPath>
	<g clip-path="url(#SVGID_2_)">
		<g>
			<path fill="#774100" d="M28.805,49.075c-0.294,0.43-1.191,36.823,5.204,44.274h36.197c0,0,9.886-27.94,3.151-44.274H28.589"/>
			<g>
				<rect x="43.312" y="69.078" fill="#FABB9F" width="20.041" height="13.503"/>
				<path fill="#D69C85" d="M48.174,78.845c3.019,1.197,6.332,1.923,9.584,1.95c1.863,0.014,3.758-0.217,5.596-0.543V69.078H43.312
					v6.984C44.719,77.302,46.517,78.188,48.174,78.845z"/>
				<g>
					<path fill="#FABB9F" d="M75.026,43.672c0.069-0.498,0.913-1.307,1.281-1.579c0.823-0.609,1.653,0.017,1.893,0.809
						c0.215,0.709,0.235,1.507,0.286,2.242c0.127,1.792-0.146,3.553-0.954,5.17c-0.538,1.079-1.383,1.966-2.384,2.635
						c0,0-1.078,0.536-1.292-0.696C73.856,52.252,75.026,43.677,75.026,43.672z"/>
					<path fill="#DCA68E" d="M74.855,44.748c0.048-0.356,0.651-0.934,0.915-1.13c0.59-0.435,1.184,0.013,1.355,0.579
						c0.154,0.507,0.168,1.078,0.205,1.604c0.09,1.283-0.105,2.542-0.683,3.7c-0.385,0.772-0.991,1.407-1.706,1.886
						c0,0-0.772,0.383-0.925-0.499C74.017,50.889,74.854,44.752,74.855,44.748z"/>
				</g>
				<g>
					<path fill="#FABB9F" d="M31.13,43.672c-0.068-0.498-0.912-1.307-1.28-1.579c-0.823-0.609-1.653,0.017-1.893,0.809
						c-0.215,0.709-0.235,1.507-0.287,2.242c-0.125,1.792,0.146,3.553,0.954,5.17c0.539,1.079,1.383,1.966,2.384,2.635
						c0,0,1.078,0.536,1.291-0.696C32.3,52.252,31.132,43.677,31.13,43.672z"/>
					<path fill="#DCA68E" d="M31.301,44.748c-0.048-0.356-0.651-0.934-0.916-1.13c-0.59-0.435-1.183,0.013-1.354,0.579
						c-0.154,0.507-0.168,1.078-0.206,1.604c-0.09,1.283,0.105,2.542,0.683,3.7c0.386,0.772,0.991,1.407,1.707,1.886
						c0,0,0.771,0.383,0.924-0.499C32.14,50.889,31.303,44.752,31.301,44.748z"/>
				</g>
				<path fill="#FABB9F" d="M75.684,45.285c0,5.658-0.977,11.379-3.645,16.275c-2.333,4.282-5.832,7.709-9.589,10.448
					c-3.046,2.221-6.316,4.809-10.171,4.493c-4.021-0.331-7.153-3.757-10.09-6.431c-4.132-3.761-7.392-8.432-9.401-13.928
					c-1.238-3.386-1.808-7.21-1.808-10.857c0-18.289,10.007-29.793,22.352-29.793C65.677,15.492,75.684,26.996,75.684,45.285z"/>
				<path fill="#FABB9F" d="M83.825,88.687l-21.761-6.531h-8.73h-8.73l-21.761,6.531c0,0-10.085,4.288-11.205,17.862h41.697h41.697
					C93.91,92.975,83.825,88.687,83.825,88.687z"/>
				<path fill="#22BEC2" d="M77.352,86.745l-5.561-1.669L53.333,103.52L34.822,85.093l-4.35,1.305c0,0,1.63,6.578,0.51,20.152
					h22.352h22.852C75.065,92.975,77.352,86.745,77.352,86.745z"/>
			</g>
		</g>
		<path fill="#EA6F39" d="M32.3,34.455c0,0,5.292,2.686,19.046,3.402l3.009-9.773l0.716,9.773c0,0,4.155,0.287,11.319-0.86
			l1.289-5.444l1.577,5.158c0,0,3.868-0.287,4.995-2.678c0,0-2.273-17.955-18.894-19.531C55.358,14.502,36.53,14.776,32.3,34.455z"
			/>
		<path fill="#EA6F39" d="M41.173,17.286c-0.515-0.252,2.116-3.572,2.268-3.726c2.979-2.988,7.509-4.02,11.601-3.774
			c10.999,0.658,19.402,7.305,23.251,17.579c1.326,3.54,2.24,7.584,2.568,11.352c0.001,0.007,2.149,24.665,0,49.081
			c0,0-0.859,8.403-0.143,17.494c0,0-9.026,2.136-8.597-15.138l0.859-24.644l1.271-21.679c0,0,0.593-10.129-3.42-11.992
			C70.832,31.84,41.206,17.302,41.173,17.286z"/>
		<path fill="#EA6F39" d="M47.59,14.303c0,0-18.891,0.646-17.74,27.79l1.131,1.553c0,0,6.037-16.105,15.78-19.687L47.59,14.303z"/>
		<path fill="#EA6F39" d="M37.809,84.196l-7.338,2.202c-4.056-12.434-1.848-36.084-1.848-36.084s1.696,3.09,3.246,2.751
			c0,0,1.279,4.565,2.591,6.918C34.451,66.594,34.694,76.527,37.809,84.196z"/>
	</g>
</g>
</svg>
